<svg xmlns="http://www.w3.org/2000/svg" width="252.871" height="38.559" viewBox="0 0 252.871 38.559">
  <g id="Logo" transform="translate(-384.635 -492.708)">
    <path id="Union_4" data-name="Union 4" d="M547.489,530.8a8.628,8.628,0,0,1-2.854-1.269,5.028,5.028,0,0,1-1.621-1.865,5.1,5.1,0,0,1-.518-2.256,4.776,4.776,0,0,1,.479-2.216,6.817,6.817,0,0,1,1.065-1.553,5.792,5.792,0,0,1,1.543-1.191,4.209,4.209,0,0,1-1.045-1.377,3.92,3.92,0,0,1-.361-1.689,3.675,3.675,0,0,1,.312-1.543,5.608,5.608,0,0,1,.7-1.172,5.854,5.854,0,0,1,1.035-1.016,6.4,6.4,0,0,1-1.846-2.2,5.948,5.948,0,0,1-.634-2.724,7.3,7.3,0,0,1,.575-2.92,6.435,6.435,0,0,1,1.689-2.315,7.919,7.919,0,0,1,2.754-1.523,11.99,11.99,0,0,1,3.789-.547,10.611,10.611,0,0,1,1.67.127,10.188,10.188,0,0,1,1.513.362l2.227-2.73a4.325,4.325,0,0,1,.927-.9,1.731,1.731,0,0,1,.947-.256,2.015,2.015,0,0,1,.8.167,2.318,2.318,0,0,1,.684.441,2.212,2.212,0,0,1,.479.657,1.809,1.809,0,0,1,.186.794,1.475,1.475,0,0,1-.3.911,7.936,7.936,0,0,1-.907.971l-1.836,1.724a5.955,5.955,0,0,1,1.914,4.413,7.4,7.4,0,0,1-.576,2.929,6.3,6.3,0,0,1-1.689,2.314,7.967,7.967,0,0,1-2.754,1.512,11.869,11.869,0,0,1-3.77.547,10.705,10.705,0,0,1-1.24-.069,6.408,6.408,0,0,1-1.124-.224,4.673,4.673,0,0,0-.429.449,2.894,2.894,0,0,0-.283.488,1.42,1.42,0,0,0-.127.6,1.554,1.554,0,0,0,.156.7,1.278,1.278,0,0,0,.537.528,3.347,3.347,0,0,0,1.045.331,9.828,9.828,0,0,0,1.679.118H554.7a13.4,13.4,0,0,1,3.448.391,6.747,6.747,0,0,1,2.4,1.123,4.549,4.549,0,0,1,1.406,1.758,5.61,5.61,0,0,1,.459,2.314,6.172,6.172,0,0,1-.683,2.842A6.683,6.683,0,0,1,559.7,529.1a10.589,10.589,0,0,1-3.36,1.582,16.665,16.665,0,0,1-4.649.586A16.381,16.381,0,0,1,547.489,530.8Zm1.065-8.184a3.975,3.975,0,0,0-.5.869,2.867,2.867,0,0,0-.225,1.163,2.578,2.578,0,0,0,.254,1.132,2.4,2.4,0,0,0,.781.908,4.121,4.121,0,0,0,1.338.6,7.276,7.276,0,0,0,1.944.225,9.186,9.186,0,0,0,2.265-.244,5.068,5.068,0,0,0,1.582-.664,2.913,2.913,0,0,0,.938-.977,2.4,2.4,0,0,0,.312-1.181,2.34,2.34,0,0,0-.185-.948,1.883,1.883,0,0,0-.6-.732,2.907,2.907,0,0,0-1.074-.479,6.788,6.788,0,0,0-1.621-.166h-2.031q-.684,0-1.28-.058a9.3,9.3,0,0,1-1.182-.2,4.336,4.336,0,0,0-.716.748Zm2.265-17.284a2.989,2.989,0,0,0-1.084.664,2.889,2.889,0,0,0-.674,1.035,3.692,3.692,0,0,0-.234,1.348,3.753,3.753,0,0,0,.244,1.387,2.906,2.906,0,0,0,1.793,1.739,4.38,4.38,0,0,0,1.475.234,4.182,4.182,0,0,0,1.454-.234,3.1,3.1,0,0,0,1.084-.665,2.811,2.811,0,0,0,.684-1.035,4,4,0,0,0-.01-2.725,3.017,3.017,0,0,0-.693-1.054,3.1,3.1,0,0,0-1.113-.684,4.289,4.289,0,0,0-1.485-.244,4.231,4.231,0,0,0-1.441.234Zm-73.047,16.045a8.661,8.661,0,0,1-3.145-1.934,8.377,8.377,0,0,1-1.973-3.047,11.14,11.14,0,0,1-.683-4.014,13.653,13.653,0,0,1,.732-4.639,9.883,9.883,0,0,1,2.041-3.447,8.71,8.71,0,0,1,3.135-2.148,10.552,10.552,0,0,1,4.013-.742,9.406,9.406,0,0,1,3.4.586,7.159,7.159,0,0,1,2.6,1.689,7.559,7.559,0,0,1,1.66,2.686,10.277,10.277,0,0,1,.586,3.594,3.034,3.034,0,0,1-.674,2.168,2.54,2.54,0,0,1-1.924.7H477.266v.039a6.718,6.718,0,0,0,.547,2.149,4.634,4.634,0,0,0,2.851,2.559,7.009,7.009,0,0,0,2.227.332,9.589,9.589,0,0,0,1.749-.137,12.245,12.245,0,0,0,1.28-.3c.363-.11.686-.21.966-.3a2.565,2.565,0,0,1,.791-.137,1.546,1.546,0,0,1,1.165.5,1.589,1.589,0,0,1,.312.517,1.831,1.831,0,0,1,.107.626,2.144,2.144,0,0,1-.156.849,2.339,2.339,0,0,1-.508.713,4.1,4.1,0,0,1-.859.616,7.366,7.366,0,0,1-1.4.586,13.488,13.488,0,0,1-1.933.44,15.719,15.719,0,0,1-2.451.175,12.193,12.193,0,0,1-4.182-.677Zm2.265-15.957a3.475,3.475,0,0,0-1.181.761,4.621,4.621,0,0,0-.927,1.319,7.632,7.632,0,0,0-.6,1.933H485.2a5.776,5.776,0,0,0-1.181-3.222,3.35,3.35,0,0,0-2.627-1.035,3.783,3.783,0,0,0-1.352.244Zm-23.79,15.957a8.67,8.67,0,0,1-3.145-1.934,8.375,8.375,0,0,1-1.972-3.047,11.187,11.187,0,0,1-.684-4.014,13.726,13.726,0,0,1,.732-4.639,9.9,9.9,0,0,1,2.041-3.447,8.718,8.718,0,0,1,3.135-2.148,10.564,10.564,0,0,1,4.014-.742,9.408,9.408,0,0,1,3.4.586,7.168,7.168,0,0,1,2.6,1.689,7.553,7.553,0,0,1,1.66,2.686,10.277,10.277,0,0,1,.586,3.594,3.039,3.039,0,0,1-.674,2.168,2.54,2.54,0,0,1-1.924.7H455.742v.039a6.691,6.691,0,0,0,.547,2.149,4.634,4.634,0,0,0,2.851,2.559,6.986,6.986,0,0,0,2.227.332,9.564,9.564,0,0,0,1.748-.137,12.109,12.109,0,0,0,1.279-.3q.546-.165.967-.3a2.581,2.581,0,0,1,.792-.137,1.57,1.57,0,0,1,.665.137,1.527,1.527,0,0,1,.812.878,1.806,1.806,0,0,1,.106.626,2.108,2.108,0,0,1-.156.849,2.3,2.3,0,0,1-.508.713,4.066,4.066,0,0,1-.858.616,7.364,7.364,0,0,1-1.4.586,13.487,13.487,0,0,1-1.933.44,15.719,15.719,0,0,1-2.451.175,12.184,12.184,0,0,1-4.181-.677Zm2.265-15.957a3.494,3.494,0,0,0-1.181.761,4.644,4.644,0,0,0-.928,1.319,7.712,7.712,0,0,0-.605,1.933h7.872a5.776,5.776,0,0,0-1.181-3.222,3.347,3.347,0,0,0-2.627-1.035,3.757,3.757,0,0,0-1.348.244Zm38.457,15.039a5.915,5.915,0,0,1-1.406-4.326V505.761H494.02a1.654,1.654,0,0,1-1.26-.508,2.088,2.088,0,0,1-.478-1.484,2.064,2.064,0,0,1,.478-1.466,1.654,1.654,0,0,1,1.26-.507h1.719l.625-3.3a2.839,2.839,0,0,1,.811-1.64,2.319,2.319,0,0,1,1.592-.527,2.093,2.093,0,0,1,1.562.556,2.208,2.208,0,0,1,.548,1.611v3.3h3.3a1.654,1.654,0,0,1,1.26.507,2.063,2.063,0,0,1,.479,1.466,2.089,2.089,0,0,1-.479,1.484,1.654,1.654,0,0,1-1.26.508h-3.3v9.4a3.2,3.2,0,0,0,.468,1.973,1.736,1.736,0,0,0,1.445.586,4.234,4.234,0,0,0,.616-.039,4.164,4.164,0,0,0,.479-.1c.143-.039.273-.072.391-.1a1.7,1.7,0,0,1,.37-.04,1.432,1.432,0,0,1,.577.118,1.305,1.305,0,0,1,.449.322,1.521,1.521,0,0,1,.294.5,1.885,1.885,0,0,1,.107.644,2.2,2.2,0,0,1-.176.928,2.486,2.486,0,0,1-.508.714,3.061,3.061,0,0,1-.538.41,4.2,4.2,0,0,1-.84.391,7.281,7.281,0,0,1-1.163.292,8.651,8.651,0,0,1-1.5.118,5.94,5.94,0,0,1-4.377-1.417Zm-55.986.1a5.533,5.533,0,0,1-1.28-3.994v-21.5a2.258,2.258,0,0,1,.655-1.728,3.555,3.555,0,0,1,4,0,2.259,2.259,0,0,1,.655,1.728v20.1a6.916,6.916,0,0,0,.1,1.269,2.347,2.347,0,0,0,.283.8,1.048,1.048,0,0,0,.44.41,1.321,1.321,0,0,0,.567.118,3.627,3.627,0,0,0,.488-.03,3.251,3.251,0,0,1,.43-.029,1.243,1.243,0,0,1,.489.1,1.142,1.142,0,0,1,.41.294,1.517,1.517,0,0,1,.283.479,1.84,1.84,0,0,1,.107.653,2.443,2.443,0,0,1-.167.957,2.128,2.128,0,0,1-.459.684,2.744,2.744,0,0,1-.468.37,3.491,3.491,0,0,1-.655.322,4.664,4.664,0,0,1-.908.235,7.447,7.447,0,0,1-1.211.088,5,5,0,0,1-3.757-1.32Zm192.685,1.114a2.5,2.5,0,0,1-.741-.519,5.243,5.243,0,0,1-.382-.42c-.11-.136-.237-.3-.38-.5l-6.563-8.8v8.016a2.254,2.254,0,0,1-.654,1.73,3.557,3.557,0,0,1-4,0,2.258,2.258,0,0,1-.655-1.729V495.061a2.258,2.258,0,0,1,.655-1.728,3.555,3.555,0,0,1,4,0,2.252,2.252,0,0,1,.654,1.727v15.09l6.446-7.063c.183-.2.334-.358.458-.488s.238-.247.343-.351a2.4,2.4,0,0,1,.731-.479,2.372,2.372,0,0,1,.908-.166,2.617,2.617,0,0,1,1.018.2,2.942,2.942,0,0,1,.858.547,2.737,2.737,0,0,1,.6.792,1.928,1.928,0,0,1,.04,1.728,3.085,3.085,0,0,1-.655.889l-5.08,4.931,5.508,6.826a3.67,3.67,0,0,1,.529.81,2.144,2.144,0,0,1,.2.908,2.118,2.118,0,0,1-.263,1.045,2.988,2.988,0,0,1-.674.83,3.127,3.127,0,0,1-.934.552,2.918,2.918,0,0,1-1.045.2,2.191,2.191,0,0,1-.92-.19Zm-214.033.137h-9.177a2.707,2.707,0,1,1,0-5.414h6.317a2.707,2.707,0,1,0,0-5.414H394.817a2.707,2.707,0,1,1,0-5.414h19.612a2.707,2.707,0,0,0,0-5.414H401.072a2.707,2.707,0,0,1,0-5.414h21.563v.006h11.758a1.747,1.747,0,0,1,1.348.527,2.263,2.263,0,0,1,.489,1.582,2.3,2.3,0,0,1-.489,1.592,1.727,1.727,0,0,1-1.348.537h-8.886v7.344h7.344a1.719,1.719,0,0,1,1.318.537,2.235,2.235,0,0,1,.5,1.572,2.2,2.2,0,0,1-.5,1.563,1.726,1.726,0,0,1-1.318.528h-7.344V519.4a2.287,2.287,0,0,1-.684,1.777,2.942,2.942,0,0,1-2.051.625h-.137v.015Zm-28.382,0a2.707,2.707,0,1,1,0-5.414h10.228a2.707,2.707,0,1,1,0,5.414Zm218.813-.626a2.254,2.254,0,0,1-.654-1.729v-9.279a7.621,7.621,0,0,0-.244-2.05,3.743,3.743,0,0,0-.7-1.406,2.707,2.707,0,0,0-1.123-.8,4.192,4.192,0,0,0-1.5-.255,3.661,3.661,0,0,0-.977.127,5.043,5.043,0,0,0-.85.323,3.72,3.72,0,0,0-.722.458c-.216.176-.407.349-.577.517a6.159,6.159,0,0,0-1.035,1.427v10.935a2.255,2.255,0,0,1-.655,1.729,3.56,3.56,0,0,1-4,0,2.255,2.255,0,0,1-.655-1.729V503.809a1.983,1.983,0,0,1,2.206-2.207,3.11,3.11,0,0,1,.929.127,2.061,2.061,0,0,1,.692.371,1.853,1.853,0,0,1,.469.6,2.489,2.489,0,0,1,.233.781l.156,1h.078a6.354,6.354,0,0,1,1.426-1.523,7.33,7.33,0,0,1,.841-.567,6.719,6.719,0,0,1,1.054-.489,7.862,7.862,0,0,1,1.279-.342,8.445,8.445,0,0,1,1.514-.127,8.688,8.688,0,0,1,3.1.528,6.238,6.238,0,0,1,2.364,1.563,6.894,6.894,0,0,1,1.494,2.549,10.715,10.715,0,0,1,.518,3.486v9.9a2.257,2.257,0,0,1-.654,1.729,3.559,3.559,0,0,1-4.007-.005Zm-24.081,0a2.251,2.251,0,0,1-.655-1.729V504.005a2.254,2.254,0,0,1,.655-1.728,3.555,3.555,0,0,1,4,0,2.259,2.259,0,0,1,.655,1.728v15.448a2.259,2.259,0,0,1-.655,1.729,3.562,3.562,0,0,1-4,0Zm-51.8,0a2.251,2.251,0,0,1-.655-1.729v-9.279a7.579,7.579,0,0,0-.243-2.05,3.784,3.784,0,0,0-.7-1.406,2.706,2.706,0,0,0-1.123-.8,4.193,4.193,0,0,0-1.5-.255,3.66,3.66,0,0,0-.977.127,5,5,0,0,0-.849.323,3.729,3.729,0,0,0-.723.458c-.215.176-.407.349-.576.517a6.11,6.11,0,0,0-1.035,1.427v10.935a2.259,2.259,0,0,1-.655,1.729,3.56,3.56,0,0,1-4,0,2.255,2.255,0,0,1-.655-1.729V503.809A1.984,1.984,0,0,1,522.7,501.6a3.1,3.1,0,0,1,.927.127,2.061,2.061,0,0,1,.694.371,1.837,1.837,0,0,1,.468.6,2.52,2.52,0,0,1,.235.781l.155,1h.079a6.3,6.3,0,0,1,1.426-1.523,7.446,7.446,0,0,1,.84-.567,6.675,6.675,0,0,1,1.054-.489,7.845,7.845,0,0,1,1.28-.342,8.433,8.433,0,0,1,1.513-.127,8.676,8.676,0,0,1,3.106.528,6.253,6.253,0,0,1,2.364,1.563,6.907,6.907,0,0,1,1.494,2.549,10.8,10.8,0,0,1,.517,3.486v9.9a2.255,2.255,0,0,1-.655,1.729,3.564,3.564,0,0,1-4.01-.005Zm-24.083,0a2.26,2.26,0,0,1-.653-1.729V504.005a2.259,2.259,0,0,1,.653-1.728,3.555,3.555,0,0,1,4,0,2.258,2.258,0,0,1,.655,1.728v15.448a2.259,2.259,0,0,1-.655,1.729,3.557,3.557,0,0,1-4,0Zm58.39.479a2.46,2.46,0,0,1-1.837-.655,2.49,2.49,0,0,1-.644-1.827V497.013a2.322,2.322,0,0,1,.664-1.777,2.912,2.912,0,0,1,2.052-.625,2.946,2.946,0,0,1,2.07.625,2.322,2.322,0,0,1,.664,1.777v20.273h8.692a1.855,1.855,0,0,1,1.4.537,2.3,2.3,0,0,1,.518,1.651,2.331,2.331,0,0,1-.508,1.65,1.841,1.841,0,0,1-1.406.538ZM387.339,500.156a2.708,2.708,0,0,1,0-5.417H392.1a2.707,2.707,0,0,1,0,5.414Zm199.344-1.481a3.153,3.153,0,0,1-1-.634,2.865,2.865,0,0,1-.889-2.1,3.07,3.07,0,0,1,.235-1.2,2.919,2.919,0,0,1,.654-.966,3.026,3.026,0,0,1,1.015-.645,3.6,3.6,0,0,1,1.319-.234,3.334,3.334,0,0,1,1.26.234,3.173,3.173,0,0,1,1,.635,2.849,2.849,0,0,1,.888,2.1,3.065,3.065,0,0,1-.233,1.2,2.842,2.842,0,0,1-.665.966,3.1,3.1,0,0,1-1.016.644,3.482,3.482,0,0,1-1.309.234,3.289,3.289,0,0,1-1.255-.237Zm-75.878,0a3.1,3.1,0,0,1-1-.634,2.859,2.859,0,0,1-.888-2.1,3.052,3.052,0,0,1,.234-1.2,2.9,2.9,0,0,1,.654-.966,3.02,3.02,0,0,1,1.016-.645,3.6,3.6,0,0,1,1.318-.234,3.334,3.334,0,0,1,1.26.234,3.162,3.162,0,0,1,1,.635,2.855,2.855,0,0,1,.889,2.1,3.085,3.085,0,0,1-.234,1.2,2.842,2.842,0,0,1-.665.966,3.122,3.122,0,0,1-1.016.644,3.48,3.48,0,0,1-1.308.234,3.294,3.294,0,0,1-1.256-.237Z" fill="#2a2a2a"/>
  </g>
</svg>
