<svg xmlns="http://www.w3.org/2000/svg" width="1429.579" height="802.061" viewBox="0 0 1429.579 802.061">
  <path id="PlusPattern" d="M-2739.91,511.707v-9.3h-9.3v-4.653h9.3v-9.3h4.65v9.3h9.305V502.4h-9.305v9.3Zm-69.78,0v-9.3h-9.3v-4.653h9.3v-9.3h4.653v9.3h9.3V502.4h-9.3v9.3Zm-69.777,0v-9.3h-9.3v-4.653h9.3v-9.3h4.653v9.3h9.3V502.4h-9.3v9.3Zm-69.778,0v-9.3h-9.3v-4.653h9.3v-9.3h4.651v9.3h9.3V502.4h-9.3v9.3Zm-69.779,0v-9.3h-9.3v-4.653h9.3v-9.3h4.653v9.3h9.3V502.4h-9.3v9.3Zm-69.778,0v-9.3h-9.3v-4.653h9.3v-9.3h4.653v9.3h9.3V502.4h-9.3v9.3Zm-69.78,0v-9.3h-9.3v-4.653h9.3v-9.3h4.653v9.3h9.3V502.4h-9.3v9.3Zm-69.777,0v-9.3h-9.3v-4.653h9.3v-9.3h4.652v9.3h9.3V502.4h-9.3v9.3Zm-69.777,0v-9.3h-9.306v-4.653h9.306v-9.3h4.651v9.3h9.305V502.4h-9.305v9.3Zm-69.779,0v-9.3h-9.3v-4.653h9.3v-9.3h4.652v9.3h9.3V502.4h-9.3v9.3Zm-69.778,0v-9.3h-9.3v-4.653h9.3v-9.3h4.653v9.3h9.3V502.4h-9.3v9.3Zm-69.777,0v-9.3h-9.306v-4.653h9.306v-9.3h4.65v9.3h9.3V502.4h-9.3v9.3Zm-69.779,0v-9.3h-9.3v-4.653h9.3v-9.3h4.652v9.3h9.3V502.4h-9.3v9.3Zm-69.778,0v-9.3h-9.305v-4.653h9.305v-9.3h4.65v9.3h9.306V502.4h-9.306v9.3Zm-69.78,0v-9.3h-9.3v-4.653h9.3v-9.3h4.652v9.3h9.3V502.4h-9.3v9.3Zm-69.778,0v-9.3h-9.3v-4.653h9.3v-9.3h4.654v9.3h9.3V502.4h-9.3v9.3Zm-69.777,0v-9.3h-9.305v-4.653h9.305v-9.3h4.651v9.3h9.3V502.4h-9.3v9.3Zm-69.779,0v-9.3h-9.3v-4.653h9.3v-9.3h4.653v9.3h9.3V502.4h-9.3v9.3Zm-69.777,0v-9.3h-9.306v-4.653h9.306v-9.3h4.65v9.3h9.306V502.4h-9.306v9.3Zm-69.78,0v-9.3h-9.3v-4.653h9.3v-9.3h4.652v9.3h9.3V502.4h-9.3v9.3ZM-2739.91,441.93v-9.306h-9.3v-4.65h9.3v-9.306h4.65v9.306h9.305v4.65h-9.305v9.306Zm-69.78,0v-9.306h-9.3v-4.65h9.3v-9.306h4.653v9.306h9.3v4.65h-9.3v9.306Zm-69.777,0v-9.306h-9.3v-4.65h9.3v-9.306h4.653v9.306h9.3v4.65h-9.3v9.306Zm-69.778,0v-9.306h-9.3v-4.65h9.3v-9.306h4.651v9.306h9.3v4.65h-9.3v9.306Zm-69.779,0v-9.306h-9.3v-4.65h9.3v-9.306h4.653v9.306h9.3v4.65h-9.3v9.306Zm-69.778,0v-9.306h-9.3v-4.65h9.3v-9.306h4.653v9.306h9.3v4.65h-9.3v9.306Zm-69.78,0v-9.306h-9.3v-4.65h9.3v-9.306h4.653v9.306h9.3v4.65h-9.3v9.306Zm-69.777,0v-9.306h-9.3v-4.65h9.3v-9.306h4.652v9.306h9.3v4.65h-9.3v9.306Zm-69.777,0v-9.306h-9.306v-4.65h9.306v-9.306h4.651v9.306h9.305v4.65h-9.305v9.306Zm-69.779,0v-9.306h-9.3v-4.65h9.3v-9.306h4.652v9.306h9.3v4.65h-9.3v9.306Zm-69.778,0v-9.306h-9.3v-4.65h9.3v-9.306h4.653v9.306h9.3v4.65h-9.3v9.306Zm-69.777,0v-9.306h-9.306v-4.65h9.306v-9.306h4.65v9.306h9.3v4.65h-9.3v9.306Zm-69.779,0v-9.306h-9.3v-4.65h9.3v-9.306h4.652v9.306h9.3v4.65h-9.3v9.306Zm-69.778,0v-9.306h-9.305v-4.65h9.305v-9.306h4.65v9.306h9.306v4.65h-9.306v9.306Zm-69.78,0v-9.306h-9.3v-4.65h9.3v-9.306h4.652v9.306h9.3v4.65h-9.3v9.306Zm-69.778,0v-9.306h-9.3v-4.65h9.3v-9.306h4.654v9.306h9.3v4.65h-9.3v9.306Zm-69.777,0v-9.306h-9.305v-4.65h9.305v-9.306h4.651v9.306h9.3v4.65h-9.3v9.306Zm-69.779,0v-9.306h-9.3v-4.65h9.3v-9.306h4.653v9.306h9.3v4.65h-9.3v9.306Zm-69.777,0v-9.306h-9.306v-4.65h9.306v-9.306h4.65v9.306h9.306v4.65h-9.306v9.306Zm-69.78,0v-9.306h-9.3v-4.65h9.3v-9.306h4.652v9.306h9.3v4.65h-9.3v9.306Zm1325.787-69.78v-9.3h-9.3v-4.653h9.3v-9.3h4.65v9.3h9.305v4.653h-9.305v9.3Zm-69.78,0v-9.3h-9.3v-4.653h9.3v-9.3h4.653v9.3h9.3v4.653h-9.3v9.3Zm-69.777,0v-9.3h-9.3v-4.653h9.3v-9.3h4.653v9.3h9.3v4.653h-9.3v9.3Zm-69.778,0v-9.3h-9.3v-4.653h9.3v-9.3h4.651v9.3h9.3v4.653h-9.3v9.3Zm-69.779,0v-9.3h-9.3v-4.653h9.3v-9.3h4.653v9.3h9.3v4.653h-9.3v9.3Zm-69.778,0v-9.3h-9.3v-4.653h9.3v-9.3h4.653v9.3h9.3v4.653h-9.3v9.3Zm-69.78,0v-9.3h-9.3v-4.653h9.3v-9.3h4.653v9.3h9.3v4.653h-9.3v9.3Zm-69.777,0v-9.3h-9.3v-4.653h9.3v-9.3h4.652v9.3h9.3v4.653h-9.3v9.3Zm-69.777,0v-9.3h-9.306v-4.653h9.306v-9.3h4.651v9.3h9.305v4.653h-9.305v9.3Zm-69.779,0v-9.3h-9.3v-4.653h9.3v-9.3h4.652v9.3h9.3v4.653h-9.3v9.3Zm-69.778,0v-9.3h-9.3v-4.653h9.3v-9.3h4.653v9.3h9.3v4.653h-9.3v9.3Zm-69.777,0v-9.3h-9.306v-4.653h9.306v-9.3h4.65v9.3h9.3v4.653h-9.3v9.3Zm-69.779,0v-9.3h-9.3v-4.653h9.3v-9.3h4.652v9.3h9.3v4.653h-9.3v9.3Zm-69.778,0v-9.3h-9.305v-4.653h9.305v-9.3h4.65v9.3h9.306v4.653h-9.306v9.3Zm-69.78,0v-9.3h-9.3v-4.653h9.3v-9.3h4.652v9.3h9.3v4.653h-9.3v9.3Zm-69.778,0v-9.3h-9.3v-4.653h9.3v-9.3h4.654v9.3h9.3v4.653h-9.3v9.3Zm-69.777,0v-9.3h-9.305v-4.653h9.305v-9.3h4.651v9.3h9.3v4.653h-9.3v9.3Zm-69.779,0v-9.3h-9.3v-4.653h9.3v-9.3h4.653v9.3h9.3v4.653h-9.3v9.3Zm-69.777,0v-9.3h-9.306v-4.653h9.306v-9.3h4.65v9.3h9.306v4.653h-9.306v9.3Zm-69.78,0v-9.3h-9.3v-4.653h9.3v-9.3h4.652v9.3h9.3v4.653h-9.3v9.3Zm1325.787-69.777v-9.306h-9.3v-4.65h9.3v-9.3h4.65v9.3h9.305v4.65h-9.305v9.306Zm-69.78,0v-9.306h-9.3v-4.65h9.3v-9.3h4.653v9.3h9.3v4.65h-9.3v9.306Zm-69.777,0v-9.306h-9.3v-4.65h9.3v-9.3h4.653v9.3h9.3v4.65h-9.3v9.306Zm-69.778,0v-9.306h-9.3v-4.65h9.3v-9.3h4.651v9.3h9.3v4.65h-9.3v9.306Zm-69.779,0v-9.306h-9.3v-4.65h9.3v-9.3h4.653v9.3h9.3v4.65h-9.3v9.306Zm-69.778,0v-9.306h-9.3v-4.65h9.3v-9.3h4.653v9.3h9.3v4.65h-9.3v9.306Zm-69.78,0v-9.306h-9.3v-4.65h9.3v-9.3h4.653v9.3h9.3v4.65h-9.3v9.306Zm-69.777,0v-9.306h-9.3v-4.65h9.3v-9.3h4.652v9.3h9.3v4.65h-9.3v9.306Zm-69.777,0v-9.306h-9.306v-4.65h9.306v-9.3h4.651v9.3h9.305v4.65h-9.305v9.306Zm-69.779,0v-9.306h-9.3v-4.65h9.3v-9.3h4.652v9.3h9.3v4.65h-9.3v9.306Zm-69.778,0v-9.306h-9.3v-4.65h9.3v-9.3h4.653v9.3h9.3v4.65h-9.3v9.306Zm-69.777,0v-9.306h-9.306v-4.65h9.306v-9.3h4.65v9.3h9.3v4.65h-9.3v9.306Zm-69.779,0v-9.306h-9.3v-4.65h9.3v-9.3h4.652v9.3h9.3v4.65h-9.3v9.306Zm-69.778,0v-9.306h-9.305v-4.65h9.305v-9.3h4.65v9.3h9.306v4.65h-9.306v9.306Zm-69.78,0v-9.306h-9.3v-4.65h9.3v-9.3h4.652v9.3h9.3v4.65h-9.3v9.306Zm-69.778,0v-9.306h-9.3v-4.65h9.3v-9.3h4.654v9.3h9.3v4.65h-9.3v9.306Zm-69.777,0v-9.306h-9.305v-4.65h9.305v-9.3h4.651v9.3h9.3v4.65h-9.3v9.306Zm-69.779,0v-9.306h-9.3v-4.65h9.3v-9.3h4.653v9.3h9.3v4.65h-9.3v9.306Zm-69.777,0v-9.306h-9.306v-4.65h9.306v-9.3h4.65v9.3h9.306v4.65h-9.306v9.306Zm-69.78,0v-9.306h-9.3v-4.65h9.3v-9.3h4.652v9.3h9.3v4.65h-9.3v9.306Zm1325.787-69.78v-9.3h-9.3v-4.653h9.3v-9.3h4.65v9.3h9.305v4.653h-9.305v9.3Zm-69.78,0v-9.3h-9.3v-4.653h9.3v-9.3h4.653v9.3h9.3v4.653h-9.3v9.3Zm-69.777,0v-9.3h-9.3v-4.653h9.3v-9.3h4.653v9.3h9.3v4.653h-9.3v9.3Zm-69.778,0v-9.3h-9.3v-4.653h9.3v-9.3h4.651v9.3h9.3v4.653h-9.3v9.3Zm-69.779,0v-9.3h-9.3v-4.653h9.3v-9.3h4.653v9.3h9.3v4.653h-9.3v9.3Zm-69.778,0v-9.3h-9.3v-4.653h9.3v-9.3h4.653v9.3h9.3v4.653h-9.3v9.3Zm-69.78,0v-9.3h-9.3v-4.653h9.3v-9.3h4.653v9.3h9.3v4.653h-9.3v9.3Zm-69.777,0v-9.3h-9.3v-4.653h9.3v-9.3h4.652v9.3h9.3v4.653h-9.3v9.3Zm-69.777,0v-9.3h-9.306v-4.653h9.306v-9.3h4.651v9.3h9.305v4.653h-9.305v9.3Zm-69.779,0v-9.3h-9.3v-4.653h9.3v-9.3h4.652v9.3h9.3v4.653h-9.3v9.3Zm-69.778,0v-9.3h-9.3v-4.653h9.3v-9.3h4.653v9.3h9.3v4.653h-9.3v9.3Zm-69.777,0v-9.3h-9.306v-4.653h9.306v-9.3h4.65v9.3h9.3v4.653h-9.3v9.3Zm-69.779,0v-9.3h-9.3v-4.653h9.3v-9.3h4.652v9.3h9.3v4.653h-9.3v9.3Zm-69.778,0v-9.3h-9.305v-4.653h9.305v-9.3h4.65v9.3h9.306v4.653h-9.306v9.3Zm-69.78,0v-9.3h-9.3v-4.653h9.3v-9.3h4.652v9.3h9.3v4.653h-9.3v9.3Zm-69.778,0v-9.3h-9.3v-4.653h9.3v-9.3h4.654v9.3h9.3v4.653h-9.3v9.3Zm-69.777,0v-9.3h-9.305v-4.653h9.305v-9.3h4.651v9.3h9.3v4.653h-9.3v9.3Zm-69.779,0v-9.3h-9.3v-4.653h9.3v-9.3h4.653v9.3h9.3v4.653h-9.3v9.3Zm-69.777,0v-9.3h-9.306v-4.653h9.306v-9.3h4.65v9.3h9.306v4.653h-9.306v9.3Zm-69.78,0v-9.3h-9.3v-4.653h9.3v-9.3h4.652v9.3h9.3v4.653h-9.3v9.3Zm1325.787-69.777v-9.3h-9.3V148.86h9.3v-9.3h4.65v9.3h9.305v4.653h-9.305v9.3Zm-69.78,0v-9.3h-9.3V148.86h9.3v-9.3h4.653v9.3h9.3v4.653h-9.3v9.3Zm-69.777,0v-9.3h-9.3V148.86h9.3v-9.3h4.653v9.3h9.3v4.653h-9.3v9.3Zm-69.778,0v-9.3h-9.3V148.86h9.3v-9.3h4.651v9.3h9.3v4.653h-9.3v9.3Zm-69.779,0v-9.3h-9.3V148.86h9.3v-9.3h4.653v9.3h9.3v4.653h-9.3v9.3Zm-69.778,0v-9.3h-9.3V148.86h9.3v-9.3h4.653v9.3h9.3v4.653h-9.3v9.3Zm-69.78,0v-9.3h-9.3V148.86h9.3v-9.3h4.653v9.3h9.3v4.653h-9.3v9.3Zm-69.777,0v-9.3h-9.3V148.86h9.3v-9.3h4.652v9.3h9.3v4.653h-9.3v9.3Zm-69.777,0v-9.3h-9.306V148.86h9.306v-9.3h4.651v9.3h9.305v4.653h-9.305v9.3Zm-69.779,0v-9.3h-9.3V148.86h9.3v-9.3h4.652v9.3h9.3v4.653h-9.3v9.3Zm-69.778,0v-9.3h-9.3V148.86h9.3v-9.3h4.653v9.3h9.3v4.653h-9.3v9.3Zm-69.777,0v-9.3h-9.306V148.86h9.306v-9.3h4.65v9.3h9.3v4.653h-9.3v9.3Zm-69.779,0v-9.3h-9.3V148.86h9.3v-9.3h4.652v9.3h9.3v4.653h-9.3v9.3Zm-69.778,0v-9.3h-9.305V148.86h9.305v-9.3h4.65v9.3h9.306v4.653h-9.306v9.3Zm-69.78,0v-9.3h-9.3V148.86h9.3v-9.3h4.652v9.3h9.3v4.653h-9.3v9.3Zm-69.778,0v-9.3h-9.3V148.86h9.3v-9.3h4.654v9.3h9.3v4.653h-9.3v9.3Zm-69.777,0v-9.3h-9.305V148.86h9.305v-9.3h4.651v9.3h9.3v4.653h-9.3v9.3Zm-69.779,0v-9.3h-9.3V148.86h9.3v-9.3h4.653v9.3h9.3v4.653h-9.3v9.3Zm-69.777,0v-9.3h-9.306V148.86h9.306v-9.3h4.65v9.3h9.306v4.653h-9.306v9.3Zm-69.78,0v-9.3h-9.3V148.86h9.3v-9.3h4.652v9.3h9.3v4.653h-9.3v9.3ZM-2739.91,93.039V83.733h-9.3v-4.65h9.3V69.777h4.65v9.306h9.305v4.65h-9.305v9.306Zm-69.78,0V83.733h-9.3v-4.65h9.3V69.777h4.653v9.306h9.3v4.65h-9.3v9.306Zm-69.777,0V83.733h-9.3v-4.65h9.3V69.777h4.653v9.306h9.3v4.65h-9.3v9.306Zm-69.778,0V83.733h-9.3v-4.65h9.3V69.777h4.651v9.306h9.3v4.65h-9.3v9.306Zm-69.779,0V83.733h-9.3v-4.65h9.3V69.777h4.653v9.306h9.3v4.65h-9.3v9.306Zm-69.778,0V83.733h-9.3v-4.65h9.3V69.777h4.653v9.306h9.3v4.65h-9.3v9.306Zm-69.78,0V83.733h-9.3v-4.65h9.3V69.777h4.653v9.306h9.3v4.65h-9.3v9.306Zm-69.777,0V83.733h-9.3v-4.65h9.3V69.777h4.652v9.306h9.3v4.65h-9.3v9.306Zm-69.777,0V83.733h-9.306v-4.65h9.306V69.777h4.651v9.306h9.305v4.65h-9.305v9.306Zm-69.779,0V83.733h-9.3v-4.65h9.3V69.777h4.652v9.306h9.3v4.65h-9.3v9.306Zm-69.778,0V83.733h-9.3v-4.65h9.3V69.777h4.653v9.306h9.3v4.65h-9.3v9.306Zm-69.777,0V83.733h-9.306v-4.65h9.306V69.777h4.65v9.306h9.3v4.65h-9.3v9.306Zm-69.779,0V83.733h-9.3v-4.65h9.3V69.777h4.652v9.306h9.3v4.65h-9.3v9.306Zm-69.778,0V83.733h-9.305v-4.65h9.305V69.777h4.65v9.306h9.306v4.65h-9.306v9.306Zm-69.78,0V83.733h-9.3v-4.65h9.3V69.777h4.652v9.306h9.3v4.65h-9.3v9.306Zm-69.778,0V83.733h-9.3v-4.65h9.3V69.777h4.654v9.306h9.3v4.65h-9.3v9.306Zm-69.777,0V83.733h-9.305v-4.65h9.305V69.777h4.651v9.306h9.3v4.65h-9.3v9.306Zm-69.779,0V83.733h-9.3v-4.65h9.3V69.777h4.653v9.306h9.3v4.65h-9.3v9.306Zm-69.777,0V83.733h-9.306v-4.65h9.306V69.777h4.65v9.306h9.306v4.65h-9.306v9.306Zm-69.78,0V83.733h-9.3v-4.65h9.3V69.777h4.652v9.306h9.3v4.65h-9.3v9.306Zm1325.787-69.78v-9.3h-9.3V9.3h9.3V0h4.65V9.3h9.305v4.653h-9.305v9.3Zm-69.78,0v-9.3h-9.3V9.3h9.3V0h4.653V9.3h9.3v4.653h-9.3v9.3Zm-69.777,0v-9.3h-9.3V9.3h9.3V0h4.653V9.3h9.3v4.653h-9.3v9.3Zm-69.778,0v-9.3h-9.3V9.3h9.3V0h4.651V9.3h9.3v4.653h-9.3v9.3Zm-69.779,0v-9.3h-9.3V9.3h9.3V0h4.653V9.3h9.3v4.653h-9.3v9.3Zm-69.778,0v-9.3h-9.3V9.3h9.3V0h4.653V9.3h9.3v4.653h-9.3v9.3Zm-69.78,0v-9.3h-9.3V9.3h9.3V0h4.653V9.3h9.3v4.653h-9.3v9.3Zm-69.777,0v-9.3h-9.3V9.3h9.3V0h4.652V9.3h9.3v4.653h-9.3v9.3Zm-69.777,0v-9.3h-9.306V9.3h9.306V0h4.651V9.3h9.305v4.653h-9.305v9.3Zm-69.779,0v-9.3h-9.3V9.3h9.3V0h4.652V9.3h9.3v4.653h-9.3v9.3Zm-69.778,0v-9.3h-9.3V9.3h9.3V0h4.653V9.3h9.3v4.653h-9.3v9.3Zm-69.777,0v-9.3h-9.306V9.3h9.306V0h4.65V9.3h9.3v4.653h-9.3v9.3Zm-69.779,0v-9.3h-9.3V9.3h9.3V0h4.652V9.3h9.3v4.653h-9.3v9.3Zm-69.778,0v-9.3h-9.305V9.3h9.305V0h4.65V9.3h9.306v4.653h-9.306v9.3Zm-69.78,0v-9.3h-9.3V9.3h9.3V0h4.652V9.3h9.3v4.653h-9.3v9.3Zm-69.778,0v-9.3h-9.3V9.3h9.3V0h4.654V9.3h9.3v4.653h-9.3v9.3Zm-69.777,0v-9.3h-9.305V9.3h9.305V0h4.651V9.3h9.3v4.653h-9.3v9.3Zm-69.779,0v-9.3h-9.3V9.3h9.3V0h4.653V9.3h9.3v4.653h-9.3v9.3Zm-69.777,0v-9.3h-9.306V9.3h9.306V0h4.65V9.3h9.306v4.653h-9.306v9.3Zm-69.78,0v-9.3h-9.3V9.3h9.3V0h4.652V9.3h9.3v4.653h-9.3v9.3Z" transform="translate(4085.667 916.676) rotate(13)" fill="#2a2a2a"/>
</svg>
